<svg width="24" height="24" viewBox="0 0 24 24" fill="none" xmlns="http://www.w3.org/2000/svg">
<path d="M6.08999 21.06C5.82477 21.06 5.57042 20.9546 5.38288 20.7671C5.19534 20.5796 5.08999 20.3252 5.08999 20.06L4.93999 5.4C4.92795 5.10234 4.97487 4.80525 5.07806 4.52579C5.18125 4.24633 5.33868 3.99004 5.54127 3.77164C5.74387 3.55324 5.98765 3.37705 6.25859 3.25321C6.52952 3.12936 6.82227 3.0603 7.11999 3.05L16.71 3C17.0081 3.00521 17.3023 3.06909 17.5757 3.18801C17.8491 3.30692 18.0964 3.47854 18.3035 3.69305C18.5106 3.90756 18.6734 4.16077 18.7826 4.43821C18.8918 4.71565 18.9453 5.01189 18.94 5.31L19.08 19.97C19.0817 20.1452 19.0373 20.3178 18.9513 20.4705C18.8653 20.6232 18.7407 20.7506 18.59 20.84C18.438 20.9278 18.2655 20.974 18.09 20.974C17.9145 20.974 17.742 20.9278 17.59 20.84L11.89 17.68L6.59999 20.91C6.44334 20.9975 6.26906 21.0488 6.08999 21.06ZM11.85 15.51C12.0238 15.5103 12.195 15.5514 12.35 15.63L17.06 18.24L16.94 5.29C16.94 5.09 16.81 4.95 16.73 4.96L7.12999 5.05C7.04999 5.05 6.93999 5.18 6.93999 5.38L7.05999 18.28L11.34 15.65C11.4954 15.561 11.6709 15.5128 11.85 15.51Z" fill="#404040"/>
</svg>
