<svg width="24" height="24" viewBox="0 0 24 24" fill="none" xmlns="http://www.w3.org/2000/svg">
<path d="M12.3 22H12.2C10.8285 21.9895 9.47293 21.7056 8.21257 21.1647C6.95222 20.6238 5.81245 19.8369 4.86001 18.85C3.09385 16.9613 2.08989 14.4853 2.04187 11.8999C1.99386 9.31452 2.9052 6.80298 4.60001 4.84999C5.69189 3.62633 7.06454 2.68607 8.60001 2.10999C8.77917 2.04104 8.97439 2.02513 9.16235 2.06414C9.35032 2.10315 9.52308 2.19544 9.66001 2.32999C9.78682 2.45931 9.87614 2.62065 9.91841 2.79677C9.96068 2.9729 9.95432 3.15719 9.90001 3.32999C9.35196 4.83092 9.24338 6.45703 9.58701 8.01751C9.93063 9.57798 10.7122 11.0081 11.84 12.14C12.9783 13.2643 14.4118 14.0433 15.9745 14.3866C17.5372 14.7299 19.1652 14.6236 20.67 14.08C20.8491 14.0169 21.0425 14.0062 21.2275 14.049C21.4125 14.0918 21.5814 14.1864 21.7147 14.3217C21.8479 14.457 21.9398 14.6274 21.9797 14.8131C22.0196 14.9987 22.0058 15.1919 21.94 15.37C21.4292 16.7337 20.6311 17.9717 19.6 19C18.6408 19.9563 17.5022 20.7136 16.2494 21.2285C14.9966 21.7433 13.6544 22.0055 12.3 22ZM7.46001 4.91999C6.95768 5.27228 6.49794 5.68169 6.09001 6.13999C4.71455 7.71612 3.97343 9.74691 4.01038 11.8385C4.04733 13.9301 4.85973 15.9334 6.29001 17.46C7.05853 18.2582 7.97927 18.8942 8.9978 19.3305C10.0163 19.7667 11.112 19.9944 12.22 20H12.3C13.6262 19.9992 14.9331 19.6822 16.1122 19.0753C17.2914 18.4683 18.3088 17.5889 19.08 16.51C17.5084 16.7136 15.9109 16.5544 14.4104 16.0444C12.9099 15.5344 11.5463 14.6873 10.4242 13.5681C9.30217 12.449 8.45154 11.0875 7.93769 9.58834C7.42383 8.08916 7.26042 6.49216 7.46001 4.91999Z" fill="#404040"/>
</svg>
